<svg width="383" height="246" viewBox="0 0 383 246" fill="none" xmlns="http://www.w3.org/2000/svg">
<rect x="10" width="233" height="6" fill="#1AC2E5"/>
<rect x="10" y="240" width="233" height="6" fill="#1AC2E5"/>
<rect x="10" y="6" width="6" height="73" fill="#1AC2E5"/>
<rect x="237" y="167" width="6" height="73" fill="#1AC2E5"/>
<rect x="237" y="6" width="6" height="73" fill="#1AC2E5"/>
<rect x="10" y="167" width="6" height="73" fill="#1AC2E5"/>
<rect y="107" width="27" height="27" fill="#1AC2E5"/>
<path d="M146.736 146V100.56H178.096V108.752H151.088L156.464 103.184V123.984L151.088 119.76H176.944V127.824H151.088L156.464 123.6V146H146.736ZM193.463 146.768C189.921 146.768 187.02 145.957 184.759 144.336C182.54 142.672 181.431 140.368 181.431 137.424C181.431 134.395 182.369 132.069 184.247 130.448C186.167 128.784 188.983 127.568 192.695 126.8L203.767 124.624C203.767 122.405 203.255 120.741 202.231 119.632C201.249 118.48 199.82 117.904 197.943 117.904C196.108 117.904 194.679 118.331 193.655 119.184C192.631 119.995 191.969 121.211 191.671 122.832L182.007 122.384C182.647 118.629 184.332 115.792 187.062 113.872C189.836 111.909 193.463 110.928 197.943 110.928C203.063 110.928 206.903 112.144 209.463 114.576C212.065 117.008 213.367 120.571 213.367 125.264V136.976C213.367 137.957 213.516 138.619 213.815 138.96C214.156 139.259 214.647 139.408 215.287 139.408H216.247V146C215.948 146.085 215.457 146.171 214.775 146.256C214.135 146.341 213.495 146.384 212.854 146.384C211.489 146.384 210.209 146.149 209.015 145.68C207.863 145.211 206.924 144.421 206.199 143.312C205.473 142.16 205.111 140.539 205.111 138.448L205.943 139.088C205.516 140.624 204.748 141.968 203.639 143.12C202.572 144.272 201.164 145.168 199.415 145.808C197.708 146.448 195.724 146.768 193.463 146.768ZM195.767 140.176C197.345 140.176 198.732 139.877 199.927 139.28C201.121 138.64 202.06 137.723 202.743 136.528C203.425 135.333 203.767 133.925 203.767 132.304V130.64L195.958 132.304C194.423 132.603 193.249 133.115 192.439 133.84C191.671 134.523 191.287 135.419 191.287 136.528C191.287 137.68 191.671 138.576 192.439 139.216C193.207 139.856 194.316 140.176 195.767 140.176ZM236.214 146.768C232.715 146.768 229.664 146.043 227.062 144.592C224.459 143.099 222.432 141.008 220.982 138.32C219.531 135.632 218.806 132.475 218.806 128.848C218.806 125.221 219.531 122.085 220.982 119.44C222.432 116.752 224.459 114.661 227.062 113.168C229.664 111.675 232.715 110.928 236.214 110.928C239.243 110.928 241.952 111.461 244.342 112.528C246.774 113.595 248.736 115.131 250.229 117.136C251.723 119.141 252.64 121.552 252.982 124.368L243.062 124.816C242.763 122.683 241.995 121.083 240.758 120.016C239.563 118.907 238.048 118.352 236.214 118.352C233.824 118.352 231.968 119.269 230.646 121.104C229.323 122.939 228.662 125.52 228.662 128.848C228.662 132.176 229.323 134.779 230.646 136.656C231.968 138.491 233.824 139.408 236.214 139.408C238.048 139.408 239.584 138.853 240.822 137.744C242.059 136.592 242.806 134.864 243.062 132.56L252.982 132.944C252.683 135.76 251.787 138.213 250.294 140.304C248.843 142.352 246.902 143.952 244.47 145.104C242.08 146.213 239.328 146.768 236.214 146.768ZM271.432 146C267.891 146 265.288 145.189 263.624 143.568C261.96 141.904 261.128 139.28 261.128 135.696V103.632H270.728V134.544C270.728 136.208 271.069 137.339 271.752 137.936C272.477 138.533 273.544 138.832 274.952 138.832H279.752V146H271.432ZM255.624 118.864V111.696H279.752V118.864H255.624ZM300.401 146.768C296.902 146.768 293.852 146.043 291.249 144.592C288.646 143.099 286.62 141.008 285.169 138.32C283.718 135.632 282.993 132.475 282.993 128.848C282.993 125.221 283.718 122.085 285.169 119.44C286.62 116.752 288.646 114.661 291.249 113.168C293.852 111.675 296.902 110.928 300.401 110.928C303.9 110.928 306.95 111.675 309.553 113.168C312.156 114.661 314.182 116.752 315.633 119.44C317.084 122.085 317.809 125.221 317.809 128.848C317.809 132.475 317.084 135.632 315.633 138.32C314.182 141.008 312.156 143.099 309.553 144.592C306.95 146.043 303.9 146.768 300.401 146.768ZM300.401 139.408C302.79 139.408 304.646 138.491 305.969 136.656C307.292 134.779 307.953 132.176 307.953 128.848C307.953 125.52 307.292 122.939 305.969 121.104C304.646 119.227 302.79 118.288 300.401 118.288C298.012 118.288 296.156 119.227 294.833 121.104C293.51 122.939 292.849 125.52 292.849 128.848C292.849 132.176 293.51 134.779 294.833 136.656C296.156 138.491 298.012 139.408 300.401 139.408ZM323.786 146V111.696H332.875L333.195 121.68L332.491 121.488C333.045 118.032 334.027 115.536 335.435 114C336.843 112.464 338.784 111.696 341.259 111.696H344.395V119.632H341.259C339.467 119.632 337.995 119.867 336.843 120.336C335.691 120.805 334.816 121.552 334.219 122.576C333.664 123.6 333.387 124.987 333.387 126.736V146H323.786ZM358.963 146.768C355.421 146.768 352.52 145.957 350.259 144.336C348.04 142.672 346.931 140.368 346.931 137.424C346.931 134.395 347.869 132.069 349.747 130.448C351.667 128.784 354.483 127.568 358.195 126.8L369.267 124.624C369.267 122.405 368.755 120.741 367.731 119.632C366.749 118.48 365.32 117.904 363.443 117.904C361.608 117.904 360.179 118.331 359.155 119.184C358.131 119.995 357.469 121.211 357.171 122.832L347.507 122.384C348.147 118.629 349.832 115.792 352.562 113.872C355.336 111.909 358.963 110.928 363.443 110.928C368.563 110.928 372.403 112.144 374.963 114.576C377.565 117.008 378.867 120.571 378.867 125.264V136.976C378.867 137.957 379.016 138.619 379.315 138.96C379.656 139.259 380.147 139.408 380.787 139.408H381.747V146C381.448 146.085 380.957 146.171 380.275 146.256C379.635 146.341 378.995 146.384 378.354 146.384C376.989 146.384 375.709 146.149 374.515 145.68C373.363 145.211 372.424 144.421 371.699 143.312C370.973 142.16 370.611 140.539 370.611 138.448L371.443 139.088C371.016 140.624 370.248 141.968 369.139 143.12C368.072 144.272 366.664 145.168 364.915 145.808C363.208 146.448 361.224 146.768 358.963 146.768ZM361.267 140.176C362.845 140.176 364.232 139.877 365.427 139.28C366.621 138.64 367.56 137.723 368.243 136.528C368.925 135.333 369.267 133.925 369.267 132.304V130.64L361.458 132.304C359.923 132.603 358.749 133.115 357.939 133.84C357.171 134.523 356.787 135.419 356.787 136.528C356.787 137.68 357.171 138.576 357.939 139.216C358.707 139.856 359.816 140.176 361.267 140.176Z" fill="#71819E"/>
</svg>
