<svg xmlns:xlink="http://www.w3.org/1999/xlink" xmlns:dc="http://purl.org/dc/elements/1.1/" xmlns:cc="http://creativecommons.org/ns#" xmlns:rdf="http://www.w3.org/1999/02/22-rdf-syntax-ns#" xmlns:svg="http://www.w3.org/2000/svg" xmlns="http://www.w3.org/2000/svg" xmlns:sodipodi="http://sodipodi.sourceforge.net/DTD/sodipodi-0.dtd" xmlns:inkscape="http://www.inkscape.org/namespaces/inkscape" viewBox="0 0 265.72 73.87" version="1.1" id="svg1212" sodipodi:docname="aade-logo-top-gr.svg" inkscape:version="0.92.5 (2060ec1f9f, 2020-04-08)" width="265.72"  height="73.87" >
  <metadata id="metadata1216">
    <rdf:RDF>
      <cc:Work rdf:about="">
        <dc:format>image/svg+xml</dc:format>
        <dc:type rdf:resource="http://purl.org/dc/dcmitype/StillImage"/>
        <dc:title>logo</dc:title>
      </cc:Work>
    </rdf:RDF>
  </metadata>
  <sodipodi:namedview pagecolor="#ffffff" bordercolor="#666666" borderopacity="1" objecttolerance="10" gridtolerance="10" guidetolerance="10" inkscape:pageopacity="0" inkscape:pageshadow="2" inkscape:window-width="1920" inkscape:window-height="1044" id="namedview1214" showgrid="false" inkscape:zoom="2.7304571" inkscape:cx="203.0928" inkscape:cy="20.413956" inkscape:window-x="0" inkscape:window-y="0" inkscape:window-maximized="1" inkscape:current-layer="svg1212" showguides="true" inkscape:guide-bbox="true">
    <sodipodi:guide position="0,23.960002" orientation="1,0" id="guide1648" inkscape:locked="false"/>
    <sodipodi:guide position="3.4792709,73.888724" orientation="0,1" id="guide1650" inkscape:locked="false"/>
    <sodipodi:guide position="136.12075,-0.0057224848" orientation="0,1" id="guide1652" inkscape:locked="false"/>
    <sodipodi:guide position="265.73,12.860002" orientation="1,0" id="guide1654" inkscape:locked="false"/>
  </sodipodi:namedview>
  <defs id="defs1140">
    <style id="style1138">.cls-1{fill-rule:evenodd;}</style>
  </defs>
  <title id="title1142">logo</title>
  <g id="Layer_2" data-name="Layer 2" style="fill:#162e60;fill-opacity:1">
    <g id="Layer_1-2" data-name="Layer 1" style="fill:#162e60;fill-opacity:1">
      <path class="cls-1" d="M0,49.89V44.46L19,54.91l-19-5ZM70.2,0H0V43L23.92,56.22l.23.06.46,0,3.48-1.16L70.2,34.39V0ZM0,55.38v-4.2l18.51,4.9L0,55.38Zm0,3.9V56.61l18.17.69L0,59.28Zm0,5.2V60.53L17.68,58.6,0,64.47ZM0,69V65.78l20-6.63L0,69ZM46.71,70.2H.36L24.83,58.14,46.71,70.2Zm23.48-.45v.45H49.29L28.41,58.69,70.2,69.75Zm0-10.5v9.21L29.62,57.73,70.2,59.25Zm0-6.37V58l-35-1.31,35-3.81Zm0-10.43v9.18L29.12,56.11,70.2,42.46Zm0-6.69v5.39L36.7,52.29,70.2,35.77Z" id="path1144" style="fill:#162e60;fill-opacity:1"/>
      <path d="M117,39.1,114.52,45h5.11l-2.52-5.88ZM121.33,49l-1.22-2.9H114L112.82,49h-1.54L117,36h.29l5.66,13Z" id="path1146" style="fill:#162e60;fill-opacity:1"/>
      <polygon points="127.14 49.15 126.84 49.15 122.65 40.36 124.25 40.36 127.02 46.44 127.08 46.44 129.83 40.36 131.39 40.36 127.14 49.15 127.14 49.15" id="polygon1148" style="fill:#162e60;fill-opacity:1"/>
      <path d="M132.07,46.68a2.51,2.51,0,0,1,1.6-2.26v-.05a1.78,1.78,0,0,1-1.38-1.74c0-1.46,1.33-2.5,3.45-2.5a6.07,6.07,0,0,1,2.61.58V42a5.11,5.11,0,0,0-2.61-.68c-1.08,0-2,.55-2,1.4,0,.7.51,1.05,1.52,1.05h1.34v1.13h-1.07c-1.31,0-2,.7-2,1.56s.76,1.65,2.38,1.65a4.57,4.57,0,0,0,2.79-.93v1.3a5.7,5.7,0,0,1-3,.77c-2.4,0-3.69-1.08-3.69-2.56Z" id="path1150" style="fill:#162e60;fill-opacity:1"/>
      <path d="M141.47,38.27c0,1.56,1.23,2.26,2.81,2.26h1.87v1.15h-2a2.7,2.7,0,0,0-2.16.88,3,3,0,0,0-.74,2,2,2,0,0,0,1.05,1.87,12.33,12.33,0,0,0,2.83,1.25c1.69.6,2.16,1.11,2.16,1.87a6.39,6.39,0,0,1-1.64,2.69l-1.11-.41a4.8,4.8,0,0,0,1.11-2.1c0-.39-.37-.66-1.59-1-3-.87-4.33-2-4.33-4a3.72,3.72,0,0,1,2.38-3.61V41a2.83,2.83,0,0,1-2.13-2.83,3.19,3.19,0,0,1,1-2.28,4,4,0,0,1,2.94-1,5.9,5.9,0,0,1,3,.72V37a5.09,5.09,0,0,0-2.82-.92,2.26,2.26,0,0,0-2.54,2.17Z" id="path1152" style="fill:#162e60;fill-opacity:1"/>
      <path d="M152.25,38.72h-1.07l2.1-3.08,1.39.46-2.42,2.62Zm-.16,9.3a2.81,2.81,0,0,0,2.22-1,3.43,3.43,0,0,0,.84-2.36,3.35,3.35,0,0,0-.86-2.32,2.79,2.79,0,0,0-2.21-1,2.9,2.9,0,0,0-2.24,1,3.37,3.37,0,0,0-.86,2.32,3,3,0,0,0,3.1,3.32Zm3.16-6.38.39-1.27h.94V49h-1.15l-.21-1.29-.06,0a3.91,3.91,0,0,1-3.16,1.5A4.41,4.41,0,0,1,148.68,48a4.54,4.54,0,0,1-1.19-3.28,4.46,4.46,0,0,1,4.5-4.54,4.13,4.13,0,0,1,3.25,1.46Z" id="path1154" style="fill:#162e60;fill-opacity:1"/>
      <path d="M166,42.35a3.1,3.1,0,0,0-4.54,0,3.47,3.47,0,0,0-.84,2.4,3.36,3.36,0,0,0,.84,2.3,2.92,2.92,0,0,0,2.28.93,3,3,0,0,0,2.24-.9,3.35,3.35,0,0,0,.88-2.41,3.4,3.4,0,0,0-.86-2.34Zm-5.37,5.58v5.28h-1.51V45a5.17,5.17,0,0,1,1.21-3.44,4.23,4.23,0,0,1,3.39-1.44A4.47,4.47,0,0,1,167,41.47a4.71,4.71,0,0,1,.06,6.45,4.18,4.18,0,0,1-3.18,1.28,4,4,0,0,1-3.18-1.34l-.11.06Z" id="path1156" style="fill:#162e60;fill-opacity:1"/>
      <path d="M169.13,40.36h6.55v1.17h-2.87v4.83c0,1,.32,1.58,1.25,1.58a2.83,2.83,0,0,0,1.6-.53v1.23a3.2,3.2,0,0,1-1.87.56,2.77,2.77,0,0,1-1.87-.6,1.74,1.74,0,0,1-.39-.73,6.69,6.69,0,0,1-.19-2V41.53h-2.21V40.36Z" id="path1158" style="fill:#162e60;fill-opacity:1"/>
      <path d="M185.24,49h-1.46V43.93c0-1.58-.78-2.53-2-2.53-1.58,0-2.75,1.09-2.75,3.18V49h-1.46V40.36h1l.28,1.29h.08a3.72,3.72,0,0,1,3-1.48c2.2,0,3.35,1.29,3.35,3.61V49Z" id="path1160" style="fill:#162e60;fill-opacity:1"/>
      <path d="M186.47,40.36H193v1.17h-2.87v4.83c0,1,.31,1.58,1.25,1.58a2.81,2.81,0,0,0,1.6-.53v1.23a3.19,3.19,0,0,1-1.87.56,2.78,2.78,0,0,1-1.87-.6,1.73,1.73,0,0,1-.39-.73,6.69,6.69,0,0,1-.19-2V41.53h-2.2V40.36Z" id="path1162" style="fill:#162e60;fill-opacity:1"/>
      <path d="M202.58,49h-1.47V43.93c0-1.58-.78-2.53-2-2.53-1.58,0-2.75,1.09-2.75,3.18V49h-1.46V40.36h1l.27,1.29h.08a3.72,3.72,0,0,1,3-1.48c2.2,0,3.35,1.29,3.35,3.61V49Z" id="path1164" style="fill:#162e60;fill-opacity:1"/>
      <path d="M214.64,39.1,212.13,45h5.11l-2.52-5.88ZM218.93,49l-1.23-2.9h-6.07l-1.2,2.9h-1.54l5.69-13h.3l5.65,13Z" id="path1166" style="fill:#162e60;fill-opacity:1"/>
      <path d="M228.84,42.35a3.11,3.11,0,0,0-4.54,0,3.46,3.46,0,0,0-.84,2.4,3.35,3.35,0,0,0,.84,2.3,3.25,3.25,0,0,0,4.52,0,3.33,3.33,0,0,0,.88-2.41,3.41,3.41,0,0,0-.86-2.34Zm-5.38,5.58v5.28H222V45a5.16,5.16,0,0,1,1.21-3.44,4.24,4.24,0,0,1,3.39-1.44,4.46,4.46,0,0,1,3.31,1.33,4.71,4.71,0,0,1,.06,6.45,4.18,4.18,0,0,1-3.18,1.28,4,4,0,0,1-3.18-1.34l-.12.06Z" id="path1168" style="fill:#162e60;fill-opacity:1"/>
      <polygon points="238.8 49.03 236.07 44.84 233.26 49.03 231.68 49.03 234.69 44.59 231.86 40.36 233.44 40.36 236.07 44.34 238.68 40.36 240.26 40.36 237.41 44.57 240.41 49.03 238.8 49.03 238.8 49.03" id="polygon1170" style="fill:#162e60;fill-opacity:1"/>
      <path d="M245.48,38.72h-1.07l2.11-3.08,1.39.46-2.42,2.62ZM249.69,49h-1.46V43.93c0-1.58-.78-2.53-2.05-2.53-1.58,0-2.75,1.09-2.75,3.18V49H242V40.36h1l.27,1.29h.08a3.72,3.72,0,0,1,3-1.48c2.2,0,3.35,1.29,3.35,3.61V49Z" id="path1172" style="fill:#162e60;fill-opacity:1"/>
      <path d="M117.29,59.7l-3.88,8.68h7.78l-3.88-8.68Zm.18-3,5.87,13h-12l5.85-13Z" id="path1174" style="fill:#162e60;fill-opacity:1"/>
      <path d="M132.71,69.68h-1.46V64.57c0-1.57-.78-2.53-2-2.53-1.58,0-2.75,1.09-2.75,3.18v4.46H125V61h1l.27,1.28h.08a3.72,3.72,0,0,1,3-1.48c2.2,0,3.35,1.29,3.35,3.61v5.26Z" id="path1176" style="fill:#162e60;fill-opacity:1"/>
      <path d="M135.45,61h1.46l0,5.34a2,2,0,0,0,1.95,2.28c1.56,0,2.61-1.07,2.61-3.12V61H143v8.67h-1l-.31-1.17a.14.14,0,0,0-.08,0,3.62,3.62,0,0,1-2.94,1.35,2.27,2.27,0,0,1-1.72-.55v4.58h-1.48V61Z" id="path1178" style="fill:#162e60;fill-opacity:1"/>
      <path d="M149.85,68.65a2.84,2.84,0,0,0,2.26-1,3.49,3.49,0,0,0,.83-2.38,3.43,3.43,0,0,0-.86-2.34,3.12,3.12,0,0,0-4.49,0,3.43,3.43,0,0,0-.86,2.34,3,3,0,0,0,3.1,3.33Zm3.27-6.55a4.43,4.43,0,0,1,1.29,3.24,4.48,4.48,0,0,1-4.57,4.54,4.35,4.35,0,0,1-4.6-4.54,4.4,4.4,0,0,1,1.32-3.22,4.46,4.46,0,0,1,3.28-1.33,4.37,4.37,0,0,1,3.27,1.31Z" id="path1180" style="fill:#162e60;fill-opacity:1"/>
      <path d="M158.55,63.13a3.27,3.27,0,0,0-.84,2.3,3,3,0,0,0,3,3.25,2.77,2.77,0,0,0,2.2-.93,3.37,3.37,0,0,0,.84-2.32,3.33,3.33,0,0,0-.82-2.3,3,3,0,0,0-4.41,0Zm5.19-1,0,.08a4.16,4.16,0,0,1,1.52,3.26,4.23,4.23,0,0,1-1.27,3.1,4.47,4.47,0,0,1-7.72-3.16,4.25,4.25,0,0,1,1.3-3.16,4.4,4.4,0,0,1,3.2-1.28h5v1.17Z" id="path1182" style="fill:#162e60;fill-opacity:1"/>
      <path d="M168.73,69.68h-1.5V61h1.5v8.67Zm-.54-10.31h-1.07l2.1-3.08,1.39.47-2.41,2.61Z" id="path1184" style="fill:#162e60;fill-opacity:1"/>
      <path d="M183,68.53a3.22,3.22,0,0,1-2.77,1.33,3,3,0,0,1-2.71-1.54h-.09a3.32,3.32,0,0,1-2.83,1.54c-2.32,0-3.53-1.74-3.53-4.37a5.27,5.27,0,0,1,1-3.24,3.58,3.58,0,0,1,2.83-1.42c.08.25.21.62.39,1.11-1.72.1-2.67,1.52-2.67,3.45s.8,3.28,2.18,3.28a2.05,2.05,0,0,0,2-2.3V63.73h1.38v2.71a2.09,2.09,0,0,0,2,2.22c1.42,0,2.28-1.38,2.28-3.28s-1-3.35-2.67-3.45l.39-1.13a3.49,3.49,0,0,1,2.81,1.4,5.12,5.12,0,0,1,1,3.18,5.24,5.24,0,0,1-1,3.14Z" id="path1186" style="fill:#162e60;fill-opacity:1"/>
      <polygon points="189.63 69.8 189.33 69.8 185.14 61.01 186.74 61.01 189.51 67.09 189.57 67.09 192.32 61.01 193.87 61.01 189.63 69.8 189.63 69.8" id="polygon1188" style="fill:#162e60;fill-opacity:1"/>
      <polygon points="209.1 68.35 209.1 69.68 200.39 69.68 200.39 56.79 208.61 56.79 208.61 58.1 201.97 58.1 201.97 62.25 208.11 62.25 208.11 63.54 201.97 63.54 201.97 68.35 209.1 68.35 209.1 68.35" id="polygon1190" style="fill:#162e60;fill-opacity:1"/>
      <path d="M213,63.13a3.28,3.28,0,0,0-.84,2.3,3,3,0,0,0,3,3.25,2.78,2.78,0,0,0,2.2-.93,3.37,3.37,0,0,0,.84-2.32,3.33,3.33,0,0,0-.82-2.3,3,3,0,0,0-4.41,0Zm5.19-1,0,.08a4.16,4.16,0,0,1,1.52,3.26,4.22,4.22,0,0,1-1.27,3.1,4.47,4.47,0,0,1-7.72-3.16A4.25,4.25,0,0,1,212,62.29a4.4,4.4,0,0,1,3.2-1.28h5v1.17Z" id="path1192" style="fill:#162e60;fill-opacity:1"/>
      <path d="M226,59.37h-1.07L227,56.29l1.38.47L226,59.37Zm-.29,9.28a2.83,2.83,0,0,0,2.26-1,3.48,3.48,0,0,0,.84-2.38,3.44,3.44,0,0,0-.86-2.34,3.11,3.11,0,0,0-4.48,0,3.45,3.45,0,0,0-.86,2.34,3,3,0,0,0,3.1,3.33ZM229,62.1a4.44,4.44,0,0,1,1.29,3.24,4.47,4.47,0,0,1-4.56,4.54,4.36,4.36,0,0,1-4.6-4.54,4.4,4.4,0,0,1,1.33-3.22,4.45,4.45,0,0,1,3.27-1.33A4.39,4.39,0,0,1,229,62.1Z" id="path1194" style="fill:#162e60;fill-opacity:1"/>
      <path d="M236.57,61.61A3.43,3.43,0,0,0,234.3,63a3.92,3.92,0,0,0-.8,2.36,3.6,3.6,0,0,0,.82,2.4,3.13,3.13,0,0,0,4.52,0,3.5,3.5,0,0,0,.86-2.38c0-1.85-1-3.1-3.12-3.7Zm3.18-5.4v1.31a5.62,5.62,0,0,0-2.77-.8c-1.34,0-2.24.57-2.24,1.64,0,.88,1,1.46,2.26,2a17.1,17.1,0,0,1,1.87.91,4.75,4.75,0,0,1,1,7.31,4.39,4.39,0,0,1-3.27,1.31,4.3,4.3,0,0,1-4.6-4.54,4.75,4.75,0,0,1,.82-2.63,4.4,4.4,0,0,1,2.3-1.75v-.08a2.73,2.73,0,0,1-1.81-2.47,2.52,2.52,0,0,1,.93-2,3.71,3.71,0,0,1,2.53-.82,6.28,6.28,0,0,1,3,.64Z" id="path1196" style="fill:#162e60;fill-opacity:1"/>
      <path d="M254.87,68.53a3.24,3.24,0,0,1-2.77,1.33,3,3,0,0,1-2.72-1.54h-.09a3.33,3.33,0,0,1-2.83,1.54c-2.32,0-3.53-1.74-3.53-4.37a5.25,5.25,0,0,1,1-3.24,3.58,3.58,0,0,1,2.83-1.42c.08.25.21.62.39,1.11-1.71.1-2.67,1.52-2.67,3.45s.8,3.28,2.18,3.28a2,2,0,0,0,2-2.3V63.73H250v2.71a2.09,2.09,0,0,0,2,2.22c1.43,0,2.28-1.38,2.28-3.28s-1-3.35-2.67-3.45l.39-1.13a3.48,3.48,0,0,1,2.81,1.4,5.13,5.13,0,0,1,1,3.18,5.26,5.26,0,0,1-1,3.14Z" id="path1198" style="fill:#162e60;fill-opacity:1"/>
      <polygon points="261.48 69.8 261.18 69.8 256.99 61.01 258.59 61.01 261.36 67.09 261.42 67.09 264.17 61.01 265.73 61.01 261.48 69.8 261.48 69.8" id="polygon1200" style="fill:#162e60;fill-opacity:1"/>
      <path d="M124.76,15.39h-5.57l2.75-6.22h.14l2.68,6.22Zm-13.69,7h5l1.56-3.53h8.6l1.52,3.53h5.13L122.66,0H121.5L111.07,22.39Z" id="path1202" style="fill:#162e60;fill-opacity:1"/>
      <path d="M149.45,15.39h-5.57l2.75-6.22h.14l2.68,6.22Zm-13.69,7h5l1.57-3.53h8.59l1.53,3.53h5.14L147.34,0h-1.16L135.76,22.39Z" id="path1204" style="fill:#162e60;fill-opacity:1"/>
      <path d="M176.3,18.49h-9.65l4.75-10.63h.06l4.83,10.63Zm-15.8,3.9h22.15L172.19,0h-1.13L160.51,22.39Z" id="path1206" style="fill:#162e60;fill-opacity:1"/>
      <polygon points="200.68 3.88 200.68 0 185.5 0 185.5 22.39 201.33 22.39 201.33 18.49 190.55 18.49 190.55 12.61 199.63 12.61 199.63 8.84 190.55 8.84 190.55 3.88 200.68 3.88 200.68 3.88" id="polygon1208" style="fill:#162e60;fill-opacity:1"/>
    </g>
  </g>
</svg>